<svg xmlns="http://www.w3.org/2000/svg" xmlns:xlink="http://www.w3.org/1999/xlink" width="25" height="25" id="music">
  <defs>
    <linearGradient id="a">
      <stop offset="0" stop-color="#ff1679"></stop>
      <stop offset="1" stop-color="#ff770b"></stop>
    </linearGradient>
    <linearGradient xlink:href="#a" id="b" x1="992.183" x2="1019.298" y1="516.081" y2="545.959" gradientTransform="translate(-793.076 614.331)scale(.80097)" gradientUnits="userSpaceOnUse"></linearGradient>
  </defs>
  <g transform="translate(0 -1027.362)">
    <rect width="25" height="25" y="1027.362" fill="url(#b)" rx="5.283" ry="5.283"></rect>
    <path fill="#fff" d="M12.5 5.5a6.995 6.995 0 0 0-3.5.938A7.008 7.008 0 0 0 6.437 16 7.008 7.008 0 0 0 16 18.563 7.008 7.008 0 0 0 18.563 9l-.25-.438-2.375 1.376.5.874 1.406-.843c1.306 2.793.378 6.147-2.344 7.719A5.98 5.98 0 0 1 7.312 15.5 5.98 5.98 0 0 1 9.5 7.312a5.997 5.997 0 0 1 6 0l.5-.875a6.995 6.995 0 0 0-3.5-.937zm0 4c-1.65 0-3 1.349-3 3 0 1.65 1.35 3 3 3s3-1.35 3-3c0-1.651-1.35-3-3-3zm0 1c1.11 0 2 .89 2 2 0 1.11-.89 2-2 2-1.11 0-2-.89-2-2 0-1.11.89-2 2-2z" color="#000" font-family="sans-serif" font-weight="400" overflow="visible" style="text-indent:0;text-align:start;line-height:normal;text-transform:none;block-progression:tb" transform="translate(0 1027.362)"></path>
  </g>
</svg>
